<?xml version="1.0" encoding="UTF-8"?><svg id="b" xmlns="http://www.w3.org/2000/svg" viewBox="0 0 178.25 174.64"><defs><style>.e{fill:#fff;}.f{fill:none;}</style></defs><g id="c"><g id="d"><path class="e" d="M18.15,131.64l-3.55,2.27-3.55,2.27c4.83,7.56,10.67,14.29,17.35,20.04,6.7,5.76,14.23,10.53,22.42,14.14,1.94.85,3.89,1.64,5.84,2.35,2,.73,4,1.37,5.99,1.94l1.15-4.06,1.15-4.06c-1.8-.51-3.62-1.1-5.43-1.76-1.77-.64-3.54-1.36-5.3-2.13-7.42-3.27-14.26-7.6-20.33-12.82-6.05-5.21-11.36-11.31-15.73-18.17Z"/><path class="e" d="M164.09,57.24l3.92-1.55,3.92-1.55c-3.97-10.07-9.66-19.28-16.73-27.22-7.09-7.98-15.58-14.69-25.11-19.76-2.83-1.5-5.74-2.86-8.7-4.05-2.98-1.2-6.01-2.24-9.08-3.11l-1.15,4.06-1.15,4.06c2.78.79,5.53,1.74,8.23,2.83,2.69,1.08,5.32,2.31,7.89,3.68,8.64,4.59,16.34,10.68,22.77,17.92,6.41,7.21,11.57,15.56,15.17,24.7Z"/><path class="e" d="M169.82,87.32c0,3.82-.26,7.62-.78,11.38-.52,3.77-1.31,7.5-2.35,11.16-1.47,5.16-3.41,10.1-5.8,14.81-2.4,4.72-5.26,9.2-8.56,13.41-1.34,1.71-2.75,3.37-4.23,4.97-1.48,1.6-3.02,3.14-4.61,4.62l2.86,3.1,2.86,3.1c1.76-1.63,3.46-3.33,5.08-5.09,1.63-1.77,3.19-3.6,4.67-5.48,3.64-4.63,6.79-9.57,9.44-14.78,2.64-5.19,4.78-10.65,6.39-16.33,1.15-4.03,2.01-8.14,2.59-12.3.57-4.14.86-8.34.86-12.54h-4.22s-4.22,0-4.22,0Z"/><path class="e" d="M18.18,28.73c-4.2,4.95-7.81,10.27-10.82,15.91-3.01,5.64-5.41,11.6-7.19,17.84l-.08.32-.08.32,4.06,1.13,4.06,1.13.08-.29.07-.29c1.61-5.66,3.79-11.07,6.52-16.18,2.73-5.11,6.01-9.93,9.81-14.42l-3.22-2.73-3.22-2.73Z"/><path class="e" d="M155.65,87.32h-4.22c0,2.97-.2,5.92-.61,8.84-.41,2.93-1.01,5.83-1.82,8.67-1.6,5.63-3.96,10.98-6.99,15.92-3.03,4.94-6.74,9.47-11.03,13.44-5.95,5.5-12.78,9.77-20.14,12.67-7.38,2.91-15.29,4.43-23.37,4.43v4.22s0,4.22,0,4.22c9.15,0,18.1-1.73,26.45-5.01,8.33-3.28,16.05-8.11,22.78-14.33,4.86-4.5,9.06-9.62,12.49-15.22,3.43-5.59,6.1-11.65,7.91-18.02.92-3.22,1.6-6.5,2.06-9.81.46-3.3.69-6.65.69-10h-4.22Z"/><path class="e" d="M33.63,121.75l-3.55,2.27-3.55,2.27c1.02,1.6,2.1,3.16,3.25,4.67,1.14,1.52,2.35,2.99,3.6,4.41,3.47,3.92,7.29,7.4,11.44,10.44,4.16,3.04,8.64,5.62,13.42,7.73l1.7-3.86,1.7-3.86c-4.22-1.86-8.18-4.14-11.85-6.82-3.66-2.68-7.04-5.76-10.1-9.21-1.11-1.25-2.17-2.56-3.19-3.9-1.01-1.34-1.97-2.72-2.87-4.13Z"/><path class="e" d="M141.99,53.92l3.6-2.2,3.6-2.2c-3.38-5.51-7.45-10.53-12.1-14.91-4.67-4.4-9.91-8.18-15.6-11.2-2.26-1.2-4.57-2.28-6.94-3.23-2.37-.96-4.79-1.79-7.24-2.48l-1.15,4.06-1.15,4.06c2.16.62,4.3,1.35,6.39,2.19,2.09.84,4.14,1.8,6.13,2.86,5.03,2.67,9.66,6.01,13.78,9.9,4.11,3.88,7.71,8.3,10.69,13.17Z"/><path class="f" d="M21.79,69.14s0,0,0,0h0Z"/><path class="e" d="M17.72,68.03c-2.02,7.3-2.88,14.77-2.57,22.19.3,7.42,1.76,14.79,4.37,21.9l3.96-1.45,3.96-1.45c-2.3-6.29-3.59-12.8-3.86-19.35-.27-6.55.49-13.15,2.28-19.61l.06-.22.06-.22c1.25-4.4,2.94-8.59,5.06-12.57,2.12-3.97,4.66-7.71,7.62-11.2,5.6-6.61,12.49-11.97,20.12-15.82,7.65-3.85,16.05-6.19,24.69-6.75.67-.04,1.34-.07,2.01-.1.67-.02,1.35-.03,2.01-.03v-4.22s0-4.22,0-4.22c-.76,0-1.52.01-2.28.04-.76.02-1.52.06-2.28.11-9.77.63-19.28,3.27-27.93,7.63-8.64,4.35-16.43,10.42-22.77,17.9-3.35,3.95-6.23,8.19-8.63,12.68-2.4,4.5-4.32,9.25-5.73,14.23l-.07.26-.07.26M21.78,69.14s0,0,0,0h0Z"/><path class="e" d="M109.11,46.65c4.83,2.57,9.14,5.98,12.74,10.03,3.58,4.03,6.47,8.7,8.49,13.82,1.06,2.69,1.86,5.45,2.4,8.26.54,2.81.81,5.67.81,8.56h4.22s4.22,0,4.22,0c0-3.42-.32-6.81-.96-10.14-.63-3.32-1.58-6.59-2.84-9.78-2.38-6.05-5.8-11.57-10.04-16.34-4.26-4.79-9.35-8.82-15.07-11.86-1.7-.9-3.44-1.72-5.22-2.43-1.79-.72-3.61-1.35-5.45-1.87l-1.15,4.06-1.15,4.06c1.56.44,3.1.97,4.61,1.58,1.5.61,2.98,1.29,4.41,2.06Z"/><path class="e" d="M121.68,124.16l-2.86-3.1c-4.28,3.96-9.19,7.03-14.49,9.12-5.31,2.09-11,3.19-16.82,3.2h0s0,0,0,0c-.85,0-1.69-.02-2.53-.07-.85-.05-1.69-.12-2.53-.21l-.29-.03-.29-.03c-1.18-.15-2.35-.34-3.52-.58-1.17-.24-2.32-.52-3.47-.84-1.01-.29-2.02-.62-3.04-.99-.99-.36-1.98-.76-2.97-1.19-2.5-1.1-4.88-2.42-7.13-3.93-2.25-1.52-4.36-3.23-6.32-5.14-.93-.9-1.82-1.85-2.67-2.83-.85-.98-1.66-2-2.43-3.05-.28-.39-.56-.78-.83-1.18-.27-.4-.53-.8-.79-1.2,0,0,0,0,0,0l-.1-.16-.1-.16c-.86-1.37-1.65-2.79-2.37-4.25-.71-1.46-1.35-2.95-1.91-4.47-.4-1.09-.76-2.2-1.08-3.32-.32-1.12-.59-2.26-.82-3.39-.11-.53-.2-1.06-.29-1.59-.09-.54-.17-1.07-.24-1.61-.4-3.05-.48-6.1-.27-9.13.22-3.03.74-6.03,1.56-9,0,0,0,0,0,0l.04-.16.04-.16c.9-3.17,2.12-6.19,3.65-9.05,1.53-2.86,3.36-5.55,5.49-8.07,1.62-1.91,3.39-3.69,5.3-5.31,1.9-1.62,3.94-3.08,6.09-4.38l-2.18-3.61-2.18-3.61c-2.55,1.54-4.95,3.27-7.2,5.18-2.25,1.92-4.35,4.01-6.27,6.28-2.52,2.97-4.69,6.16-6.49,9.54-1.81,3.38-3.25,6.96-4.32,10.7l-.05.2-.05.2c-.97,3.52-1.59,7.09-1.85,10.67-.26,3.59-.15,7.21.32,10.81.08.63.17,1.26.28,1.9.1.63.22,1.26.35,1.89.27,1.34.6,2.68.97,4.01.37,1.33.8,2.64,1.27,3.93.66,1.8,1.41,3.56,2.25,5.28.84,1.72,1.78,3.4,2.79,5.01l.12.18.12.18c.31.48.62.96.94,1.42.32.47.65.93.98,1.39.9,1.24,1.86,2.44,2.87,3.61,1.01,1.16,2.07,2.28,3.16,3.35,2.32,2.26,4.82,4.29,7.48,6.09,2.66,1.8,5.48,3.35,8.44,4.66,1.16.51,2.33.98,3.51,1.41,1.2.44,2.4.82,3.59,1.16,1.35.38,2.73.72,4.11,1,1.39.28,2.78.51,4.17.68,0,0,.18.02.35.04.18.02.35.04.35.04.98.11,1.97.19,2.95.24.99.05,2.03.08,3.02.08,6.88,0,13.61-1.31,19.89-3.78,6.26-2.47,12.07-6.1,17.13-10.78l-2.86-3.1Z"/><path class="e" d="M123.75,87.32c0-3.9-.64-7.77-1.85-11.45-1.22-3.69-3.02-7.18-5.34-10.28-.24-.32-.48-.63-.73-.94-.25-.31-.5-.62-.76-.92-.09-.11-.19-.21-.29-.31-.1-.1-.2-.2-.29-.3-.03-.04-.07-.07-.1-.11-.03-.04-.07-.07-.1-.11-.74-.81-1.5-1.59-2.29-2.33-.8-.75-1.63-1.46-2.49-2.12-1.82-1.35-3.75-2.55-5.77-3.57-2.02-1.02-4.13-1.86-6.31-2.48-.38-.11-.77-.21-1.15-.31-.39-.1-.77-.19-1.16-.27-1.26-.27-2.52-.47-3.79-.61-1.28-.14-2.56-.21-3.83-.21h0s0,0,0,0c-7.11,0-13.91,2.1-19.66,5.82-5.75,3.72-10.46,9.05-13.39,15.53-.39.86-.75,1.73-1.07,2.62-.32.89-.61,1.79-.86,2.7-.44,1.57-.76,3.16-.98,4.77-.22,1.61-.33,3.23-.33,4.86v.21s.02.21.02.21c.04,3.4.55,6.75,1.52,9.96.96,3.21,2.37,6.3,4.21,9.16.19.29.38.59.58.87.2.29.4.58.6.86,2.88,3.98,6.54,7.3,10.69,9.79,4.16,2.5,8.81,4.17,13.67,4.85l.3.04.3.04c.77.1,1.5.17,2.2.22.77.05,1.5.08,2.21.08,6.39,0,12.48-1.64,17.81-4.65,5.32-3,9.87-7.37,13.19-12.83,1.73-2.84,3.05-5.89,3.94-9.04.9-3.17,1.32-6.46,1.32-9.78M115.31,87.32c0,2.54-.32,5.06-1.01,7.49-.68,2.42-1.7,4.75-3.03,6.94-2.55,4.2-6.05,7.55-10.12,9.85-4.09,2.31-8.77,3.57-13.67,3.57-.53,0-1.09-.02-1.68-.06-.53-.04-1.09-.1-1.68-.17,0,0-.13-.02-.25-.03-.12-.02-.25-.03-.25-.03-3.73-.52-7.29-1.8-10.48-3.72-3.18-1.92-5.99-4.47-8.2-7.52-.16-.22-.31-.44-.46-.66-.15-.22-.3-.45-.45-.67-1.42-2.21-2.51-4.6-3.25-7.08-.74-2.49-1.13-5.08-1.15-7.7,0-.05,0-.1,0-.15,0-.05,0-.1,0-.15,0-1.23.09-2.45.26-3.67.17-1.21.42-2.42.74-3.6.19-.7.42-1.39.67-2.08.25-.68.52-1.36.82-2.02,2.25-4.98,5.87-9.07,10.28-11.93,4.42-2.86,9.64-4.47,15.09-4.47h0s0,0,0,0c.97,0,1.96.05,2.94.16.97.11,1.94.26,2.91.47.3.06.59.13.89.21.3.07.59.15.88.24,2.86.81,5.59,2.11,8.05,3.8,2.45,1.68,4.64,3.75,6.46,6.13.04.03.07.06.1.09.03.03.06.07.08.1,1.78,2.38,3.16,5.06,4.1,7.9.93,2.82,1.42,5.79,1.42,8.79"/></g></g></svg>